<svg xmlns="http://www.w3.org/2000/svg" width="24" height="24" fill="none" viewBox="0 0 24 24" id="instagram-shop"><path fill="#5E94FF" fill-rule="evenodd" d="M7.25 5C7.25 2.92893 8.92893 1.25 11 1.25H13C15.0711 1.25 16.75 2.92893 16.75 5V6C16.75 6.41421 16.4142 6.75 16 6.75C15.5858 6.75 15.25 6.41421 15.25 6V5C15.25 3.75736 14.2426 2.75 13 2.75H11C9.75736 2.75 8.75 3.75736 8.75 5V6C8.75 6.41421 8.41421 6.75 8 6.75C7.58579 6.75 7.25 6.41421 7.25 6V5Z" clip-rule="evenodd"></path><path fill="#5E94FF" d="M7.75751 5.25C5.24921 5.25 3.17323 7.20029 3.01676 9.7037L2.51676 17.7037C2.34585 20.4383 4.51761 22.75 7.25751 22.75H16.7419C19.4818 22.75 21.6536 20.4383 21.4827 17.7037L20.9827 9.7037C20.8262 7.20029 18.7502 5.25 16.2419 5.25H7.75751Z"></path><path fill="#ECEFF1" fill-rule="evenodd" d="M7.25 10C7.25 12.0711 8.92893 13.75 11 13.75H13C15.0711 13.75 16.75 12.0711 16.75 10V9C16.75 8.58579 16.4142 8.25 16 8.25C15.5858 8.25 15.25 8.58579 15.25 9V10C15.25 11.2426 14.2426 12.25 13 12.25H11C9.75736 12.25 8.75 11.2426 8.75 10V9C8.75 8.58579 8.41421 8.25 8 8.25C7.58579 8.25 7.25 8.58579 7.25 9V10Z" clip-rule="evenodd"></path></svg>